<?xml version="1.0" encoding="UTF-8"?>
<svg version="1.1" xmlns="http://www.w3.org/2000/svg" width="512" height="512">
<path d="M0 0 C0.66 0 1.32 0 2 0 C2.66 3.63 3.32 7.26 4 11 C5.20785156 11.38929688 6.41570312 11.77859375 7.66015625 12.1796875 C13.99624787 14.29213176 20.21006427 16.7146038 26.4375 19.125 C27.62021484 19.58003906 28.80292969 20.03507812 30.02148438 20.50390625 C38.71851504 23.85925752 38.71851504 23.85925752 41 25 C41 45.46 41 65.92 41 87 C21 95 21 95 12.125 97.3125 C7.26655166 99.07716634 7.26655166 99.07716634 3.87011719 102.79150391 C1.84675242 107.47175742 0.79516687 112.39853422 -0.32958984 117.35498047 C-1.45095206 121.77917502 -3.10934158 125.95985688 -4.8125 130.1875 C-5.13524902 131.02772705 -5.45799805 131.8679541 -5.79052734 132.73364258 C-7.44153438 136.86518112 -9.17865655 140.44798049 -11.86328125 144.0078125 C-16.01695224 149.50827782 -16.01695224 149.50827782 -18 156 C-16.65195162 163.27223033 -12.98935371 169.77030683 -9.49902344 176.21337891 C-7.95825997 179.07759295 -6.48368382 181.95747972 -5.0703125 184.88671875 C-4.64766113 185.74869873 -4.22500977 186.61067871 -3.78955078 187.4987793 C-2.8268892 190.54839831 -3.07693379 191.95170919 -4 195 C-5.67677307 197.15779114 -5.67677307 197.15779114 -7.87719727 199.33129883 C-8.69797256 200.151772 -9.51874786 200.97224518 -10.36439514 201.81758118 C-11.25605881 202.6885997 -12.14772247 203.55961823 -13.06640625 204.45703125 C-13.97502914 205.35999435 -14.88365204 206.26295746 -15.81980896 207.19328308 C-18.22936925 209.58760948 -20.65069986 211.96967775 -23.07470703 214.34936523 C-25.54858392 216.78224089 -28.01110191 219.22655467 -30.47460938 221.66992188 C-35.30601417 226.45721775 -40.1486572 231.23291458 -45 236 C-50.37005283 234.29534941 -55.51076402 232.43336377 -60.609375 230.01171875 C-62.35927734 229.20057617 -62.35927734 229.20057617 -64.14453125 228.37304688 C-65.95943174 227.52458581 -67.77427804 226.67588524 -69.58154297 225.8112793 C-71.35414922 224.96633223 -73.13791375 224.14492012 -74.921875 223.32421875 C-75.96956055 222.83010498 -77.01724609 222.33599121 -78.09667969 221.8269043 C-81.6564251 220.81304139 -82.78491738 221.28336407 -86 223 C-86.83466797 223.40178467 -87.66933594 223.80356934 -88.52929688 224.2175293 C-89.41681641 224.66523682 -90.30433594 225.11294434 -91.21875 225.57421875 C-121.9308461 240.84533155 -121.9308461 240.84533155 -138 243 C-138.15710449 243.56452881 -138.31420898 244.12905762 -138.47607422 244.71069336 C-140.62184046 252.15684472 -143.32098474 259.34236273 -146.125 266.5625 C-146.58003906 267.74908203 -147.03507813 268.93566406 -147.50390625 270.15820312 C-150.86805556 278.86805556 -150.86805556 278.86805556 -152 280 C-153.93306498 280.09396057 -155.86958838 280.11743517 -157.80493164 280.11352539 C-159.04614273 280.11344986 -160.28735382 280.11337433 -161.56617737 280.11329651 C-162.9308374 280.10818911 -164.29549702 280.1029731 -165.66015625 280.09765625 C-167.04878183 280.095792 -168.43740807 280.09436813 -169.82603455 280.09336853 C-173.48721115 280.08954387 -177.1483483 280.07971403 -180.80950928 280.06866455 C-184.54292263 280.05844932 -188.27634234 280.05387067 -192.00976562 280.04882812 C-199.33986177 280.03809171 -206.66992536 280.02101591 -214 280 C-215.8577973 275.21525977 -217.70902823 270.42805134 -219.55419922 265.63842773 C-220.18292943 264.00914984 -220.81345369 262.38056309 -221.44580078 260.75268555 C-222.35400505 258.41373877 -223.25574486 256.07238869 -224.15625 253.73046875 C-224.5827887 252.63813179 -224.5827887 252.63813179 -225.01794434 251.52372742 C-226.15963884 248.53875115 -227 246.22489396 -227 243 C-227.94617188 242.79246094 -228.89234375 242.58492187 -229.8671875 242.37109375 C-246.27112547 238.61465918 -266.07989793 232.79327368 -279.38671875 222.078125 C-282.98101356 220.59527692 -284.76273811 221.45905859 -288.30615234 222.82958984 C-294.47184157 225.50842926 -300.58480134 228.30413329 -306.65698242 231.1887207 C-308.4378842 232.03185638 -310.22860429 232.8541551 -312.01953125 233.67578125 C-313.07245361 234.16989502 -314.12537598 234.66400879 -315.21020508 235.1730957 C-318 236 -318 236 -319.91075134 235.30110168 C-322.35620447 233.7781699 -324.1858873 232.05370599 -326.21777344 230.00927734 C-327.03832214 229.18857758 -327.85887085 228.36787781 -328.70428467 227.52230835 C-329.58046448 226.63580597 -330.45664429 225.74930359 -331.359375 224.8359375 C-332.26375305 223.92872955 -333.1681311 223.02152161 -334.09991455 222.08682251 C-336.49796458 219.68115581 -338.88994618 217.26954264 -341.28070068 214.85662842 C-343.72385171 212.39297656 -346.17271206 209.93501423 -348.62109375 207.4765625 C-353.41933788 202.65626427 -358.21182732 197.83030157 -363 193 C-359.02475311 183.22586877 -355.01531142 173.50823292 -350.4140625 164.0078125 C-348.5291712 159.93118713 -347.44750348 157.44014006 -349 153 C-349.34147622 151.66872885 -349.67607834 150.33565102 -350 149 C-348.73857178 149.01571045 -347.47714355 149.0314209 -346.17749023 149.04760742 C-314.46605322 149.40696047 -284.02508566 148.50387337 -252.74609375 142.76953125 C-245.59754347 141.55610889 -241.86727785 141.65945068 -235.5625 145.625 C-212.35549071 159.61512928 -184.50947231 163.76646431 -158.11914062 157.55224609 C-129.98493804 150.22049883 -106.94318232 132.72191606 -92.03710938 107.80371094 C-86.89716535 98.86446743 -81.47029635 87.78856643 -80.83984375 77.34765625 C-80.54477815 72.55851464 -79.67768163 70.61160991 -76.03515625 67.32421875 C-72.79556009 64.87965014 -69.42747185 62.63319226 -66.04589844 60.39111328 C-62.87588509 58.23565552 -59.87468103 55.88439446 -56.875 53.5 C-56.30120605 53.04633057 -55.72741211 52.59266113 -55.13623047 52.12524414 C-40.22609116 40.27246193 -26.35742468 27.44256189 -12.875 14 C-12.35351379 13.48119263 -11.83202759 12.96238525 -11.29473877 12.42785645 C-9.79506342 10.93402698 -8.29922365 9.43646929 -6.8046875 7.9375 C-5.48960205 6.62072266 -5.48960205 6.62072266 -4.14794922 5.27734375 C-1.87709653 2.99696517 -1.87709653 2.99696517 0 0 Z " fill="#23d997" transform="translate(426,202)"/>
<path d="M0 0 C20.46 0 40.92 0 62 0 C67.63326752 12.39318855 67.63326752 12.39318855 69.45703125 17.25390625 C70.04194336 18.81141602 70.04194336 18.81141602 70.63867188 20.40039062 C71.02603516 21.44388672 71.41339844 22.48738281 71.8125 23.5625 C72.21919922 24.64080078 72.62589844 25.71910156 73.04492188 26.83007812 C76 34.74174107 76 34.74174107 76 37 C76.94617188 37.20753906 77.89234375 37.41507813 78.8671875 37.62890625 C96.21378649 41.60120633 113.7545047 48.07847903 128.765625 57.7890625 C129.50296875 58.18867187 130.2403125 58.58828125 131 59 C133.02045442 58.39816251 135.02111039 57.72693904 137 57 C142.87650992 57.20619333 146.68250778 60.08892727 151.3125 63.375 C152.04017578 63.87 152.76785156 64.365 153.51757812 64.875 C158.86836364 68.60509093 158.86836364 68.60509093 160 72 C158.66654245 74.24179904 157.31168682 76.23782548 155.75 78.3125 C155.29544434 78.93060547 154.84088867 79.54871094 154.37255859 80.18554688 C152.92931362 82.13489041 151.46831009 84.06948037 150 86 C149.32469238 86.89017822 149.32469238 86.89017822 148.63574219 87.79833984 C138.16678949 101.52011827 126.79712809 114.41435744 115 127 C114.34402832 127.70108887 113.68805664 128.40217773 113.01220703 129.12451172 C108.68001417 133.75457429 104.34250598 138.37960938 100 143 C96.549915 142.23456295 94.56700106 141.09949906 91.75 138.9375 C69.15910784 122.80588052 40.96553718 116.60613691 13.5690918 120.77148438 C-5.75728984 124.28581322 -26.02559977 133.38211564 -39.671875 147.76171875 C-41 149 -41 149 -43 149 C-43.25652344 149.58136719 -43.51304687 150.16273438 -43.77734375 150.76171875 C-45.11146811 153.20406142 -46.62072773 154.82365447 -48.5625 156.8125 C-63.13694641 172.97400046 -72.06006892 196.299852 -73 218 C-73.05994141 219.19689453 -73.05994141 219.19689453 -73.12109375 220.41796875 C-73.32933715 228.71095603 -72.12604216 236.80537202 -71 245 C-70.65966701 247.66584609 -70.32932525 250.33276216 -70 253 C-90.70134511 260.26100234 -111.35191756 265.92348684 -132.9375 269.875 C-134.68788574 270.19827271 -134.68788574 270.19827271 -136.47363281 270.52807617 C-142.71481273 271.62032792 -148.67008856 272.61601919 -155 272 C-155.57967529 271.39881348 -156.15935059 270.79762695 -156.7565918 270.17822266 C-159.71629907 267.30451406 -163.02394565 266.15278907 -166.828125 264.765625 C-167.49247559 264.51409668 -168.15682617 264.26256836 -168.84130859 264.00341797 C-171.30642291 263.07372736 -173.77864061 262.16296001 -176.25 261.25 C-181.7775 259.1875 -187.305 257.125 -193 255 C-193 234.54 -193 214.08 -193 193 C-175.1875 186.5 -175.1875 186.5 -169.57495117 184.50585938 C-168.10506043 183.95420604 -166.63600606 183.40031682 -165.16796875 182.84375 C-164.02503357 182.45171387 -164.02503357 182.45171387 -162.85900879 182.05175781 C-158.68941041 180.43830341 -158.68941041 180.43830341 -155.87037659 177.11277771 C-155.0961487 175.0853141 -154.51325246 173.10715632 -154 171 C-153.61114926 169.71831491 -153.21738254 168.43809975 -152.81640625 167.16015625 C-152.61692383 166.50152588 -152.41744141 165.84289551 -152.21191406 165.16430664 C-147.9607701 151.40562305 -142.0044906 137.00673589 -134 125 C-134.31756284 120.12080199 -136.12364854 116.01005577 -138.16015625 111.6328125 C-138.46948593 110.95322479 -138.77881561 110.27363708 -139.09751892 109.57345581 C-140.07917377 107.420845 -141.07064825 105.27292852 -142.0625 103.125 C-142.7330776 101.65915396 -143.40300632 100.1930109 -144.07226562 98.7265625 C-145.70735672 95.14756162 -147.35126502 91.57273481 -149 88 C-144.37508621 82.44560076 -139.44639036 77.31474331 -134.3203125 72.22265625 C-133.50754852 71.41130722 -132.69478455 70.59995819 -131.85739136 69.76402283 C-129.28228262 67.1944741 -126.7037038 64.62844032 -124.125 62.0625 C-122.36956054 60.31208071 -120.61434983 58.561432 -118.859375 56.81054688 C-114.57555918 52.53770698 -110.28889528 48.26774101 -106 44 C-100.62994717 45.70465059 -95.48923598 47.56663623 -90.390625 49.98828125 C-89.22402344 50.52904297 -88.05742188 51.06980469 -86.85546875 51.62695312 C-85.04056826 52.47541419 -83.22572196 53.32411476 -81.41845703 54.1887207 C-79.64585078 55.03366777 -77.86208625 55.85507988 -76.078125 56.67578125 C-75.03043945 57.16989502 -73.98275391 57.66400879 -72.90332031 58.1730957 C-68.32599118 59.47678001 -65.96160319 57.52789041 -61.96875 55.3359375 C-60.25171875 54.36527344 -60.25171875 54.36527344 -58.5 53.375 C-46.03789078 46.54998645 -27.43775725 37 -13 37 C-12.89115479 36.16194824 -12.78230957 35.32389648 -12.67016602 34.46044922 C-11.93408884 30.6596631 -10.70161345 27.21415617 -9.27734375 23.6328125 C-8.92500671 22.72776978 -8.92500671 22.72776978 -8.56555176 21.80444336 C-7.69586674 19.57548118 -6.81610439 17.35046146 -5.9375 15.125 C-3.978125 10.13375 -2.01875 5.1425 0 0 Z " fill="#23d997" transform="translate(212,34)"/>
<path d="M0 0 C3.12829756 2.5195009 4.77200763 4.18059479 5.85844421 8.08525085 C5.96920792 9.24651993 6.07997162 10.407789 6.1940918 11.60424805 C6.2626343 12.25400667 6.3311768 12.9037653 6.40179634 13.57321358 C6.62557344 15.73869531 6.81828112 17.90583356 7.01171875 20.07421875 C7.16697219 21.62756348 7.3245573 23.18067667 7.48429871 24.73356628 C7.82535476 28.07050255 8.1553253 31.40829126 8.47845459 34.74700928 C8.99772696 40.05214737 9.57668188 45.34970956 10.17041016 50.64697266 C10.27070967 51.54207487 10.37100918 52.43717709 10.47434807 53.35940361 C10.67879825 55.18318171 10.88329357 57.00695476 11.0878334 58.83072281 C11.70398792 64.35808837 12.30108347 69.887533 12.90020943 75.41676521 C13.41216348 80.13879893 13.92734732 84.86043071 14.44995117 89.58129883 C14.96747223 94.25686988 15.47707492 98.93324023 15.98099327 103.61029625 C16.1715835 105.36682135 16.36494268 107.12304847 16.5612278 108.8789463 C16.83204279 111.30631898 17.09264685 113.73458598 17.35083008 116.16333008 C17.43229782 116.87223389 17.51376556 117.5811377 17.59770203 118.31152344 C18.02009754 122.40449195 18.01042582 125.99941427 17 130 C15 132 15 132 12.2878418 132.38476562 C8.1886007 131.90504453 5.64709491 130.20662744 2.39453125 127.84375 C1.48570442 127.21116272 1.48570442 127.21116272 0.55851746 126.5657959 C-1.3663445 125.223528 -3.27745548 123.86325124 -5.1875 122.5 C-7.10983311 121.13929866 -9.03480525 119.78279864 -10.96565247 118.4342041 C-12.16412327 117.59604013 -13.35745873 116.75047443 -14.54496765 115.89685059 C-17.92849681 113.48927706 -17.92849681 113.48927706 -22 113 C-23.58843861 114.98199684 -23.58843861 114.98199684 -25.0625 117.625 C-32.9874853 130.57962107 -42.28006817 142.35976078 -52 154 C-52.79422363 154.95302002 -52.79422363 154.95302002 -53.60449219 155.92529297 C-59.21128857 162.62876899 -64.90886824 169.08846682 -71.18359375 175.18359375 C-73.12891885 177.05678014 -73.12891885 177.05678014 -75.0625 179.625 C-77.38257574 182.46896381 -80.01688861 184.67837184 -82.8046875 187.0546875 C-85.08169223 189.0723892 -87.19215463 191.19385619 -89.3125 193.375 C-93.28709772 197.39015484 -97.47136495 200.97841423 -101.8828125 204.50390625 C-104.12918123 206.30269024 -106.34858513 208.11816255 -108.5546875 209.96484375 C-155.04308722 248.69127719 -210.82629151 276.7725971 -269 293 C-270.47678223 293.41306396 -270.47678223 293.41306396 -271.98339844 293.83447266 C-321.09925526 307.33848433 -373.51295499 311.29211071 -424 304 C-424.92699707 303.86658203 -425.85399414 303.73316406 -426.80908203 303.59570312 C-440.07385753 301.61742832 -440.07385753 301.61742832 -444 299 C-443.625 296.5625 -443.625 296.5625 -443 294 C-440.21774144 292.60887072 -437.71043154 292.65360436 -434.60546875 292.421875 C-433.2588837 292.31572065 -431.91236948 292.20866499 -430.56591797 292.10083008 C-429.8532074 292.04440338 -429.14049683 291.98797668 -428.40618896 291.92984009 C-332.68695696 284.17113422 -247.15113882 240.37747451 -144.9375 148.0625 C-144.39652679 147.52420563 -143.85555359 146.98591125 -143.29818726 146.43130493 C-137.31183708 140.46747737 -131.47662202 134.4414794 -126 128 C-124.97891856 126.84296858 -123.95550352 125.6879921 -122.9296875 124.53515625 C-114.82714603 115.35411501 -107.29351489 105.83308725 -100 96 C-99.41589355 95.21560547 -98.83178711 94.43121094 -98.22998047 93.62304688 C-96.45678595 91.23436733 -94.69493922 88.83778936 -92.9375 86.4375 C-92.40125 85.71199951 -91.865 84.98649902 -91.3125 84.23901367 C-88.00513129 79.67612825 -85.39409285 75.10395334 -83 70 C-83.47195801 69.68885254 -83.94391602 69.37770508 -84.43017578 69.05712891 C-112.43223966 50.56776034 -112.43223966 50.56776034 -116 47 C-116.375 44.125 -116.375 44.125 -116 41 C-112.06762857 38.06962477 -107.50567552 36.57536801 -102.92578125 34.9453125 C-102.11295685 34.65115952 -101.30013245 34.35700653 -100.462677 34.05393982 C-97.74769738 33.07271051 -95.03011591 32.09890153 -92.3125 31.125 C-90.39637962 30.43402832 -88.48044976 29.74252811 -86.56469727 29.05053711 C-82.36790207 27.5353136 -78.1700894 26.02295096 -73.97167969 24.51220703 C-66.40689492 21.78844579 -58.84774964 19.04921778 -51.2890625 16.30859375 C-49.95816922 15.82612089 -48.62727222 15.34365829 -47.29637146 14.86120605 C-46.63929734 14.62301525 -45.98222322 14.38482445 -45.30523777 14.13941574 C-44.6498096 13.90182163 -43.99438143 13.66422752 -43.3190918 13.41943359 C-42.66588172 13.18263508 -42.01267164 12.94583656 -41.33966732 12.70186234 C-34.37156918 10.17590433 -27.40289178 7.65155204 -20.43359375 5.12890625 C-19.31993439 4.72546494 -18.20627502 4.32202362 -17.05886841 3.90635681 C-15.52817215 3.35245018 -15.52817215 3.35245018 -13.96655273 2.78735352 C-13.07556381 2.46477066 -12.18457489 2.14218781 -11.2665863 1.80982971 C-7.25139123 0.37523873 -4.28796745 -0.51455609 0 0 Z " fill="#23d997" transform="translate(475,30)"/>
</svg>
